<?xml version="1.0" encoding="UTF-8"?>
<svg id="Calque_2" data-name="Calque 2" xmlns="http://www.w3.org/2000/svg" xmlns:xlink="http://www.w3.org/1999/xlink" viewBox="0 0 470.12 109.4">
  <defs>
    <style>
      .cls-1 {
        fill: #566ce6;
        stroke-width: 0px;
      }
    </style>
    <symbol id="Nouveau_symbole_9" data-name="Nouveau symbole 9" viewBox="0 0 470.12 109.4">
      <g id="A_3" data-name="A 3">
        <g>
          <path class="cls-1" d="m123.92,89.82V11.38h17.87v78.44h-17.87Z"/>
          <path class="cls-1" d="m164.72,38.31l-11.76-2.94,5.17-25.52,15.17,3.65-8.59,24.81Z"/>
          <path class="cls-1" d="m202.12,19.62c0,5.41-4.12,9.41-9.53,9.41s-9.53-4-9.53-9.53,4-9.53,9.64-9.53,9.41,4,9.41,9.64Zm-.59,70.21h-17.88v-54.45h17.88v54.45Z"/>
          <path class="cls-1" d="m232.7,35.37v6.11c3.53-6,7.29-8.23,13.88-8.23,5.41,0,10.59,2,13.99,5.29,3.65,3.76,4.94,8.23,4.94,17.88v33.4h-17.88v-33.28c0-5.29-2.82-8.47-7.41-8.47s-7.53,3.41-7.53,8.7v33.05h-17.88v-54.45h17.88Z"/>
          <path class="cls-1" d="m320.54,11.38h17.88v78.44h-17.88v-6.11c-2.47,3.41-3.88,4.7-6.35,5.88-3.18,1.53-6.94,2.35-11.29,2.35-16.58,0-27.64-11.41-27.64-28.7,0-9.41,2.94-16.82,8.94-22.34,5.41-4.82,12.23-7.65,19.05-7.65s12.11,2.12,17.29,7.06V11.38Zm-26.22,51.86c0,8.23,5.76,14.58,13.29,14.58s12.93-6.35,12.93-14.58c0-8.7-5.53-15.17-12.93-15.17s-13.29,6.47-13.29,15.17Z"/>
          <path class="cls-1" d="m366.99,66.42c1.29,6.11,6,9.76,12.46,9.76,4.82,0,8.82-2.12,10.7-6l16.46,4.23c-2.7,5.41-4.7,7.88-8.82,11.05-5.53,4.35-11.64,6.47-18.7,6.47-17.76,0-30.58-12.35-30.58-29.64s11.99-29.05,29.64-29.05,30.11,12.35,30.11,30.93v2.23h-41.28Zm23.05-9.53c-1.18-5.65-5.41-8.82-11.76-8.82s-10.23,3.18-11.41,8.82h23.17Z"/>
          <path class="cls-1" d="m433.31,89.82h-20.82l18.46-26.93-19.99-27.52h22.34l7.88,11.88,7.29-11.88h21.64l-18.93,27.52,18.93,26.93h-21.64l-7.29-12.47-7.88,12.47Z"/>
        </g>
        <g>
          <path class="cls-1" d="m108.26,37.32L57.13.19c-.36-.26-.84-.26-1.2,0L.42,40.5c-.26.19-.42.5-.42.83s.16.63.42.83l8.97,6.51-.06.04,1.79,1.23h.01s.38.27.38.27l8.37,6.08,1.74,1.26,29.93,21.73c.18.13.39.19.6.19.11,0,.23-.02.34-.06.09-.03.18-.07.26-.13l34.31-24.91,1.74-1.26,8.37-6.08.38-.28,1.36-.99.38-.28,8.97-6.51c.26-.19.42-.5.42-.83s-.16-.63-.42-.83Zm-11.09,7.18l-1.74,1.26-8.37,6.08-1.74,1.26-24.42,17.73-28.79-20.9-1.74-1.26-8.37-6.08-1.74-1.26-8.75-6.35L56.53,2.28l49.39,35.86-8.75,6.35Z"/>
          <path class="cls-1" d="m108.68,52.83c0-.33-.16-.63-.42-.83l-7.2-5.23-.95.64-.82.6,6.64,4.82-.38.28-8.37,6.08-1.74,1.26-34.53,25.07-6.64-4.82-.31.23s-.05.03-.07.04c-.51.35-1.1.54-1.73.54s-1.27-.2-1.8-.58l-30.47-22.12-1.74-1.26-7.83-5.69-.92-.67-.82-.6-.96-.63L.42,55.19c-.26.19-.42.5-.42.83s.16.63.42.83l9.35,6.79-.05.03,1.79,1.23,40.04,29.07c.18.13.39.19.6.19s.42-.06.6-.19l44.42-32.25,1.77-1.24-.03-.02,9.35-6.79c.26-.19.42-.5.42-.83Z"/>
          <path class="cls-1" d="m108.26,67.24l-7.6-5.52-.56.38-1.2.87,7.01,5.09-45.02,32.69-7.02-5.1c-.51.35-1.1.54-1.73.54s-1.27-.2-1.8-.58l-40.04-29.07-.54-.39-1.2-.87-.56-.37-7.59,5.51c-.26.19-.42.5-.42.83s.16.63.42.83l51.13,37.13c.18.13.39.19.6.19s.42-.06.6-.19l55.51-40.31c.26-.19.42-.5.42-.83s-.16-.63-.42-.83Z"/>
        </g>
      </g>
    </symbol>
  </defs>
  <g id="txt">
    <use width="470.12" height="109.4" xlink:href="#Nouveau_symbole_9"/>
  </g>
</svg>