<svg width="200" height="52" viewBox="0 0 200 52" fill="none" xmlns="http://www.w3.org/2000/svg">
<path d="M87.2739 0.356597H80.3636V34H87.2739V0.356597ZM93.9505 10.6463V34H100.356V19.8264C100.356 17.1026 102.021 15.2364 104.492 15.2364C105.753 15.2364 106.964 15.8416 107.569 16.8C107.973 17.4557 108.124 18.2123 108.124 19.5238V34H114.53V19.2211C114.53 15.3877 113.975 13.5214 112.462 12.0082C111.05 10.6463 108.931 9.8393 106.712 9.8393C103.786 9.8393 102.071 10.8481 100.356 13.5214V10.6463H93.9505ZM138.653 13.2188C136.383 10.8481 134.113 9.8393 130.936 9.8393C128.06 9.8393 125.236 10.9994 123.016 13.0674C120.595 15.3372 119.284 18.6158 119.284 22.5501C119.284 29.8639 123.924 34.807 130.835 34.807C134.416 34.807 136.635 33.6974 138.653 30.9232V34H145.059V0.356597H138.653V13.2188ZM132.449 15.2364C136.03 15.2364 138.653 18.3132 138.653 22.5501C138.653 26.5853 135.929 29.6622 132.398 29.6622C128.767 29.6622 126.093 26.6358 126.093 22.6006C126.093 18.3132 128.767 15.2364 132.449 15.2364ZM174.789 23.8616L174.839 22.6006C174.839 15.085 169.644 9.8393 162.179 9.8393C154.966 9.8393 149.872 14.9842 149.872 22.2979C149.872 29.5613 155.168 34.807 162.583 34.807C167.526 34.807 171.611 32.2346 173.932 27.695L168.03 26.0809C167.021 27.9472 165.004 29.1073 162.633 29.1073C159.455 29.1073 157.085 27.0897 156.53 23.8616H174.789ZM156.53 20.1795C157.135 17.0018 159.203 15.2364 162.28 15.2364C165.458 15.2364 167.677 17.1026 168.232 20.1795H156.53ZM187.705 27.6446L191.74 34H199.508L191.336 22.3988L199.659 10.6463H191.841L187.705 16.8504L183.417 10.6463H175.347L183.972 22.3988L175.851 34H183.417L187.705 27.6446Z" fill="#0C0C2A"/>
<path d="M0 33.5318V3.00196L22.8019 1V38.5367L0 33.5318Z" fill="#0C0C2A"/>
<path d="M49.9592 29.7781L46.8848 5.00391L24.0829 1V38.5367L49.9592 29.7781Z" fill="#0C0C2A"/>
<path d="M51.2402 29.5279L48.1658 4.75367L70.9677 2.00098V33.5318L51.2402 29.5279Z" fill="#0C0C2A"/>
</svg>
