<svg width="26" height="26" viewBox="0 0 26 26" fill="none" xmlns="http://www.w3.org/2000/svg">
<path d="M13 1.65508L15.6856 5.1969L16.0391 5.66306L16.6186 5.58338L21.0221 4.97793L20.4166 9.38137L20.3369 9.96094L20.8031 10.3144L24.3449 13L20.8031 15.6856L20.3369 16.0391L20.4166 16.6186L21.0221 21.0221L16.6186 20.4166L16.0391 20.3369L15.6856 20.8031L13 24.3449L10.3144 20.8031L9.96094 20.3369L9.38137 20.4166L4.97793 21.0221L5.58338 16.6186L5.66306 16.0391L5.1969 15.6856L1.65508 13L5.1969 10.3144L5.66306 9.96094L5.58338 9.38137L4.97793 4.97793L9.38137 5.58338L9.96094 5.66306L10.3144 5.1969L13 1.65508Z" stroke="#313138" stroke-width="2"/>
</svg>
