<svg width="16" height="16" viewBox="0 0 16 16" fill="none" xmlns="http://www.w3.org/2000/svg">
<path fill-rule="evenodd" clip-rule="evenodd" d="M16 8C16 3.58171 12.4183 -1.56562e-07 7.99999 -3.49691e-07C3.58172 -5.4282e-07 -1.56561e-07 3.58171 -3.49691e-07 7.99999C-5.4282e-07 12.4183 3.58171 16 7.99999 16C12.4183 16 16 12.4183 16 8ZM2 7.99999C2 11.3137 4.68629 14 7.99999 14C11.3137 14 14 11.3137 14 7.99999L2 7.99999Z" fill="#6177E9"/>
<path d="M7.99999 14C4.68629 14 2 11.3137 2 8L14 8C14 11.3137 11.3137 14 7.99999 14Z" fill="white"/>
</svg>
