<svg width="269" height="62" viewBox="0 0 269 62" fill="none" xmlns="http://www.w3.org/2000/svg">
<path d="M0 48.4326V2.98047L33.9158 0V55.8837L0 48.4326Z" fill="#313138"/>
<path d="M74.3099 42.8442L69.737 5.96093L35.8212 0V55.8837L74.3099 42.8442Z" fill="#313138"/>
<path d="M76.2153 42.4716L71.6423 5.58837L105.558 1.49023V48.4326L76.2153 42.4716Z" fill="#313138"/>
<path d="M131.739 26.7623V2.19122H125.663V31.7741H141.63V26.7623H131.739ZM148.67 2.90085L143.836 1.61464L141.352 11.106L145.166 12.1261L148.67 2.90085ZM159.329 2.19122H153.253V31.7741H159.329V2.19122ZM165.2 11.2391V31.7741H170.833V19.3112C170.833 16.9161 172.296 15.2751 174.47 15.2751C175.578 15.2751 176.643 15.8073 177.175 16.65C177.53 17.2266 177.663 17.8919 177.663 19.045V31.7741H183.296V18.7789C183.296 15.4082 182.808 13.7671 181.477 12.4366C180.235 11.2391 178.373 10.5294 176.421 10.5294C173.849 10.5294 172.341 11.4165 170.833 13.7671V11.2391H165.2ZM204.507 13.501C202.511 11.4165 200.515 10.5294 197.721 10.5294C195.193 10.5294 192.709 11.5495 190.758 13.368C188.629 15.3638 187.476 18.2467 187.476 21.7062C187.476 28.1372 191.556 32.4837 197.632 32.4837C200.781 32.4837 202.733 31.508 204.507 29.0686V31.7741H210.14V2.19122H204.507V13.501ZM199.052 15.2751C202.201 15.2751 204.507 17.9806 204.507 21.7062C204.507 25.2543 202.112 27.9598 199.007 27.9598C195.814 27.9598 193.463 25.2987 193.463 21.7505C193.463 17.9806 195.814 15.2751 199.052 15.2751ZM236.282 22.8593L236.326 21.7505C236.326 15.142 231.758 10.5294 225.194 10.5294C218.851 10.5294 214.372 15.0533 214.372 21.4844C214.372 27.8711 219.029 32.4837 225.549 32.4837C229.895 32.4837 233.488 30.2218 235.528 26.2301L230.339 24.8108C229.452 26.4518 227.678 27.4719 225.593 27.4719C222.799 27.4719 220.714 25.6979 220.226 22.8593H236.282ZM220.226 19.6216C220.759 16.8274 222.577 15.2751 225.283 15.2751C228.077 15.2751 230.028 16.9161 230.516 19.6216H220.226ZM247.639 26.1857L251.187 31.7741H258.017L250.832 21.5731L258.15 11.2391H251.276L247.639 16.6944L243.869 11.2391H236.773L244.357 21.5731L237.216 31.7741H243.869L247.639 26.1857ZM125.929 51.7741V39.941H123.676V51.7741H125.929ZM130.647 40.2248L128.713 39.7103L127.719 43.5069L129.245 43.9149L130.647 40.2248ZM138.654 44.6068C137.855 43.6665 137.092 43.2762 135.975 43.2762C133.58 43.2762 131.841 45.1745 131.841 47.7647C131.841 50.2661 133.491 52.058 135.797 52.058C137.004 52.058 137.891 51.6144 138.654 50.6387V51.7741H140.907V43.5601H138.654V44.6068ZM136.436 45.1745C137.767 45.1745 138.689 46.2035 138.689 47.6582C138.689 49.0775 137.678 50.2484 136.418 50.2484C135.194 50.2484 134.254 49.1662 134.254 47.7292C134.254 46.2212 135.159 45.1745 136.436 45.1745ZM145.578 45.4229H146.607V43.5246H145.578V41.3247H143.325V43.5246H142.385V45.4229H143.325V50.2129C143.307 51.2951 143.715 51.7386 144.815 51.7741H146.607V49.8936H146.217C145.72 49.8581 145.578 49.7517 145.578 49.3614V45.4229ZM150.496 51.7741V39.941H148.243V51.7741H150.496ZM159.028 44.6068C158.23 43.6665 157.467 43.2762 156.349 43.2762C153.954 43.2762 152.215 45.1745 152.215 47.7647C152.215 50.2661 153.865 52.058 156.172 52.058C157.378 52.058 158.265 51.6144 159.028 50.6387V51.7741H161.281V43.5601H159.028V44.6068ZM156.81 45.1745C158.141 45.1745 159.063 46.2035 159.063 47.6582C159.063 49.0775 158.052 50.2484 156.793 50.2484C155.568 50.2484 154.628 49.1662 154.628 47.7292C154.628 46.2212 155.533 45.1745 156.81 45.1745ZM169.234 45.9374C169.181 44.2697 168.046 43.2762 166.165 43.2762C164.249 43.2762 162.99 44.3229 162.99 45.8841C162.99 47.1792 163.788 47.9776 165.562 48.5098C166.768 48.8823 167.088 49.113 167.088 49.6097C167.088 50.071 166.715 50.3903 166.183 50.3903C165.526 50.3903 165.207 50.071 165.101 49.3614H162.936C163.025 51.0645 164.214 52.058 166.165 52.058C168.081 52.058 169.359 50.9935 169.359 49.3968C169.359 48.0663 168.631 47.3389 166.786 46.7712C165.651 46.4164 165.633 46.4164 165.385 46.2212C165.243 46.1148 165.154 45.9019 165.154 45.689C165.154 45.2455 165.509 44.9439 166.059 44.9439C166.662 44.9439 167.105 45.2987 167.105 45.7954V45.9374H169.234ZM182.642 44.4649C181.844 43.6311 181.045 43.2762 179.928 43.2762C178.916 43.2762 177.923 43.6843 177.142 44.4117C176.291 45.21 175.829 46.3631 175.829 47.7469C175.829 50.3194 177.462 52.058 179.892 52.058C181.152 52.058 181.932 51.6677 182.642 50.6919V51.7741H184.895V39.941H182.642V44.4649ZM180.46 45.1745C181.719 45.1745 182.642 46.2567 182.642 47.7469C182.642 49.1662 181.684 50.2484 180.442 50.2484C179.165 50.2484 178.225 49.1839 178.225 47.7647C178.225 46.2567 179.165 45.1745 180.46 45.1745ZM195.352 48.2082L195.37 47.7647C195.37 45.1213 193.542 43.2762 190.917 43.2762C188.38 43.2762 186.588 45.0858 186.588 47.6582C186.588 50.2129 188.451 52.058 191.059 52.058C192.797 52.058 194.234 51.1532 195.05 49.5565L192.975 48.9888C192.62 49.6452 191.91 50.0532 191.076 50.0532C189.959 50.0532 189.125 49.3436 188.93 48.2082H195.352ZM188.93 46.9131C189.143 45.7954 189.87 45.1745 190.952 45.1745C192.07 45.1745 192.85 45.8309 193.046 46.9131H188.93ZM204.55 51.7741V39.941H202.297V51.7741H204.55ZM209.268 40.2248L207.334 39.7103L206.341 43.5069L207.866 43.9149L209.268 40.2248ZM217.025 49.7339L217.699 51.7741H220.361L216.316 39.941H213.282L209.202 51.7741H211.774L212.484 49.7339H217.025ZM216.387 47.7469H213.105L214.754 42.8505L216.387 47.7469ZM221.493 43.5601V51.7741H223.746V47.8179C223.746 47.0373 223.817 46.6825 224.083 46.3099C224.403 45.8487 224.97 45.5648 225.591 45.5648C225.715 45.5648 225.893 45.5825 226.07 45.6003V43.294C225.946 43.2762 225.857 43.2762 225.804 43.2762C225.307 43.2762 224.828 43.4182 224.474 43.6665C224.136 43.9149 223.977 44.1633 223.746 44.7665V43.5601H221.493ZM233.682 44.4649C232.883 43.6311 232.085 43.2762 230.967 43.2762C229.956 43.2762 228.963 43.6843 228.182 44.4117C227.33 45.21 226.869 46.3631 226.869 47.7469C226.869 50.3194 228.501 52.058 230.932 52.058C232.191 52.058 232.972 51.6677 233.682 50.6919V51.7741H235.935V39.941H233.682V44.4649ZM231.499 45.1745C232.759 45.1745 233.682 46.2567 233.682 47.7469C233.682 49.1662 232.724 50.2484 231.482 50.2484C230.204 50.2484 229.264 49.1839 229.264 47.7647C229.264 46.2567 230.204 45.1745 231.499 45.1745ZM246.392 48.2082L246.409 47.7647C246.409 45.1213 244.582 43.2762 241.956 43.2762C239.419 43.2762 237.628 45.0858 237.628 47.6582C237.628 50.2129 239.49 52.058 242.098 52.058C243.837 52.058 245.274 51.1532 246.09 49.5565L244.014 48.9888C243.659 49.6452 242.95 50.0532 242.116 50.0532C240.998 50.0532 240.165 49.3436 239.969 48.2082H246.392ZM239.969 46.9131C240.182 45.7954 240.91 45.1745 241.992 45.1745C243.109 45.1745 243.89 45.8309 244.085 46.9131H239.969ZM248.018 43.5601V55.4465H250.271V50.8871C250.963 51.6854 251.832 52.058 253.021 52.058C255.487 52.058 257.119 50.3194 257.119 47.6937C257.119 46.0438 256.498 44.8019 255.256 43.9504C254.564 43.4891 253.837 43.2762 252.967 43.2762C251.743 43.2762 250.945 43.6665 250.271 44.5713V43.5601H248.018ZM252.524 45.1745C253.801 45.1745 254.706 46.239 254.706 47.7469C254.706 49.2017 253.766 50.2484 252.453 50.2484C251.14 50.2484 250.271 49.2549 250.271 47.7647C250.271 46.239 251.193 45.1745 252.524 45.1745ZM265.127 44.6068C264.328 43.6665 263.565 43.2762 262.448 43.2762C260.053 43.2762 258.314 45.1745 258.314 47.7647C258.314 50.2661 259.964 52.058 262.27 52.058C263.477 52.058 264.364 51.6144 265.127 50.6387V51.7741H267.38V43.5601H265.127V44.6068ZM262.909 45.1745C264.24 45.1745 265.162 46.2035 265.162 47.6582C265.162 49.0775 264.151 50.2484 262.891 50.2484C261.667 50.2484 260.727 49.1662 260.727 47.7292C260.727 46.2212 261.632 45.1745 262.909 45.1745Z" fill="#313138"/>
</svg>
