<svg width="15" height="14" viewBox="0 0 15 14" fill="none" xmlns="http://www.w3.org/2000/svg">
<path d="M7.20703 13.6035H0V11.9043H0.597656V11.3359H0V9.63672H0.597656V9.06836H0V7.36328H0.597656V6.80078H0V5.10742H0.597656V4.5332H0V2.83984H0.597656V2.26562H0V0.572266H0.597656V0.00976562H1.20117V0.572266H1.79883V0.00976562H2.40234V0.572266H3V0.00976562H3.60352V0.572266H4.20117V0.00976562H4.80469V0.572266H5.40234V0.00976562H6.00586V0.572266H6.60352V0.00976562H7.20703V1.14062H6.60352V1.71484H7.20703V3.4082H6.60352V3.9707H7.20703V5.67578H6.60352V6.23828H7.20703V7.94336H6.60352V8.50586H7.20703V10.2109H6.60352V10.7617H7.20703V12.4668H6.60352V13.0293H7.20703V13.6035ZM0.597656 3.4082V3.9707H1.20117V3.4082H0.597656ZM1.79883 3.4082V3.9707H2.40234V3.4082H1.79883ZM3 3.4082V3.9707H3.60352V3.4082H3ZM4.20117 3.4082V3.9707H4.80469V3.4082H4.20117ZM5.40234 4.5332H4.80469V5.10742H5.40234V4.5332ZM4.20117 4.5332H3.60352V5.10742H4.20117V4.5332ZM3 4.5332H2.40234V5.10742H3V4.5332ZM1.79883 4.5332H1.20117V5.10742H1.79883V4.5332ZM0.597656 5.67578V6.23828H1.20117V5.67578H0.597656ZM1.79883 5.67578V6.23828H2.40234V5.67578H1.79883ZM3 5.67578V6.23828H3.60352V5.67578H3ZM4.20117 5.67578V6.23828H4.80469V5.67578H4.20117ZM1.79883 6.80078H1.20117V7.36328H1.79883V6.80078ZM2.40234 6.80078V7.36328H3V6.80078H2.40234ZM3.60352 6.80078V7.36328H4.20117V6.80078H3.60352ZM4.80469 6.80078V7.36328H5.40234V6.80078H4.80469ZM0.597656 7.94336V8.50586H1.20117V7.94336H0.597656ZM3 7.94336V8.50586H3.60352V7.94336H3ZM2.40234 8.50586V7.94336H1.79883V8.50586H2.40234ZM4.20117 7.94336V8.50586H4.80469V7.94336H4.20117ZM5.40234 9.63672V9.06836H4.80469V9.63672H5.40234ZM4.20117 9.63672V9.06836H3.60352V9.63672H4.20117ZM3 9.63672V9.06836H2.40234V9.63672H3ZM1.79883 9.63672V9.06836H1.20117V9.63672H1.79883ZM0.597656 10.2109V10.7617H1.20117V10.2109H0.597656ZM1.79883 10.2109V10.7617H2.40234V10.2109H1.79883ZM3 10.2109V10.7617H3.60352V10.2109H3ZM4.20117 10.2109V10.7617H4.80469V10.2109H4.20117ZM5.40234 11.9043V11.3359H4.80469V11.9043H5.40234ZM4.20117 11.9043V11.3359H3.60352V11.9043H4.20117ZM3 11.9043V11.3359H2.40234V11.9043H3ZM1.79883 11.9043V11.3359H1.20117V11.9043H1.79883ZM0.597656 12.4668V13.0293H1.20117V12.4668H0.597656ZM1.79883 12.4668V13.0293H2.40234V12.4668H1.79883ZM3 12.4668V13.0293H3.60352V12.4668H3ZM4.20117 12.4668V13.0293H4.80469V12.4668H4.20117ZM5.40234 2.26562H4.80469V2.83984H5.40234V2.26562ZM4.20117 2.26562H3.60352V2.83984H4.20117V2.26562ZM3 2.26562H2.40234V2.83984H3V2.26562ZM1.79883 2.26562H1.20117V2.83984H1.79883V2.26562ZM4.80469 1.14062H4.20117V1.71484H4.80469V1.14062ZM3.60352 1.14062H3V1.71484H3.60352V1.14062ZM2.40234 1.14062H1.79883V1.71484H2.40234V1.14062ZM1.20117 1.14062H0.597656V1.71484H1.20117V1.14062ZM5.40234 3.4082V3.9707H6.00586V3.4082H5.40234ZM6.60352 4.5332H6.00586V5.10742H6.60352V4.5332ZM5.40234 5.67578V6.23828H6.00586V5.67578H5.40234ZM6.00586 6.80078V7.36328H6.60352V6.80078H6.00586ZM5.40234 7.94336V8.50586H6.00586V7.94336H5.40234ZM6.60352 9.63672V9.06836H6.00586V9.63672H6.60352ZM5.40234 10.2109V10.7617H6.00586V10.2109H5.40234ZM6.60352 11.9043V11.3359H6.00586V11.9043H6.60352ZM5.40234 12.4668V13.0293H6.00586V12.4668H5.40234ZM6.60352 2.26562H6.00586V2.83984H6.60352V2.26562ZM6.00586 1.14062H5.40234V1.71484H6.00586V1.14062ZM14.4141 13.6035H7.20703V11.9043H7.80469V11.3359H7.20703V9.63672H7.80469V9.06836H7.20703V7.36328H7.80469V6.80078H7.20703V5.10742H7.80469V4.5332H7.20703V2.83984H7.80469V2.26562H7.20703V0.572266H7.80469V0.00976562H8.4082V0.572266H9.00586V0.00976562H9.60938V0.572266H10.207V0.00976562H10.8105V0.572266H11.4082V0.00976562H12.0117V0.572266H12.6094V0.00976562H13.2129V0.572266H13.8105V0.00976562H14.4141V1.14062H13.8105V1.71484H14.4141V3.4082H13.8105V3.9707H14.4141V5.67578H13.8105V6.23828H14.4141V7.94336H13.8105V8.50586H14.4141V10.2109H13.8105V10.7617H14.4141V12.4668H13.8105V13.0293H14.4141V13.6035ZM7.80469 3.4082V3.9707H8.4082V3.4082H7.80469ZM9.00586 3.4082V3.9707H9.60938V3.4082H9.00586ZM10.207 3.4082V3.9707H10.8105V3.4082H10.207ZM11.4082 3.4082V3.9707H12.0117V3.4082H11.4082ZM12.6094 4.5332H12.0117V5.10742H12.6094V4.5332ZM11.4082 4.5332H10.8105V5.10742H11.4082V4.5332ZM10.207 4.5332H9.60938V5.10742H10.207V4.5332ZM9.00586 4.5332H8.4082V5.10742H9.00586V4.5332ZM7.80469 5.67578V6.23828H8.4082V5.67578H7.80469ZM9.00586 5.67578V6.23828H9.60938V5.67578H9.00586ZM10.207 5.67578V6.23828H10.8105V5.67578H10.207ZM11.4082 5.67578V6.23828H12.0117V5.67578H11.4082ZM9.00586 6.80078H8.4082V7.36328H9.00586V6.80078ZM9.60938 6.80078V7.36328H10.207V6.80078H9.60938ZM10.8105 6.80078V7.36328H11.4082V6.80078H10.8105ZM12.0117 6.80078V7.36328H12.6094V6.80078H12.0117ZM7.80469 7.94336V8.50586H8.4082V7.94336H7.80469ZM10.207 7.94336V8.50586H10.8105V7.94336H10.207ZM9.60938 8.50586V7.94336H9.00586V8.50586H9.60938ZM11.4082 7.94336V8.50586H12.0117V7.94336H11.4082ZM12.6094 9.63672V9.06836H12.0117V9.63672H12.6094ZM11.4082 9.63672V9.06836H10.8105V9.63672H11.4082ZM10.207 9.63672V9.06836H9.60938V9.63672H10.207ZM9.00586 9.63672V9.06836H8.4082V9.63672H9.00586ZM7.80469 10.2109V10.7617H8.4082V10.2109H7.80469ZM9.00586 10.2109V10.7617H9.60938V10.2109H9.00586ZM10.207 10.2109V10.7617H10.8105V10.2109H10.207ZM11.4082 10.2109V10.7617H12.0117V10.2109H11.4082ZM12.6094 11.9043V11.3359H12.0117V11.9043H12.6094ZM11.4082 11.9043V11.3359H10.8105V11.9043H11.4082ZM10.207 11.9043V11.3359H9.60938V11.9043H10.207ZM9.00586 11.9043V11.3359H8.4082V11.9043H9.00586ZM7.80469 12.4668V13.0293H8.4082V12.4668H7.80469ZM9.00586 12.4668V13.0293H9.60938V12.4668H9.00586ZM10.207 12.4668V13.0293H10.8105V12.4668H10.207ZM11.4082 12.4668V13.0293H12.0117V12.4668H11.4082ZM12.6094 2.26562H12.0117V2.83984H12.6094V2.26562ZM11.4082 2.26562H10.8105V2.83984H11.4082V2.26562ZM10.207 2.26562H9.60938V2.83984H10.207V2.26562ZM9.00586 2.26562H8.4082V2.83984H9.00586V2.26562ZM12.0117 1.14062H11.4082V1.71484H12.0117V1.14062ZM10.8105 1.14062H10.207V1.71484H10.8105V1.14062ZM9.60938 1.14062H9.00586V1.71484H9.60938V1.14062ZM8.4082 1.14062H7.80469V1.71484H8.4082V1.14062ZM12.6094 3.4082V3.9707H13.2129V3.4082H12.6094ZM13.8105 4.5332H13.2129V5.10742H13.8105V4.5332ZM12.6094 5.67578V6.23828H13.2129V5.67578H12.6094ZM13.2129 6.80078V7.36328H13.8105V6.80078H13.2129ZM12.6094 7.94336V8.50586H13.2129V7.94336H12.6094ZM13.8105 9.63672V9.06836H13.2129V9.63672H13.8105ZM12.6094 10.2109V10.7617H13.2129V10.2109H12.6094ZM13.8105 11.9043V11.3359H13.2129V11.9043H13.8105ZM12.6094 12.4668V13.0293H13.2129V12.4668H12.6094ZM13.8105 2.26562H13.2129V2.83984H13.8105V2.26562ZM13.2129 1.14062H12.6094V1.71484H13.2129V1.14062Z" fill="#049471"/>
</svg>
